<svg xmlns="http://www.w3.org/2000/svg" viewBox="0 0 320 660" font-family="Helvetica, Arial, sans-serif">
<clipPath id="clip"><rect x="0" y="0" width="320" height="660" rx="26"/></clipPath>
<g clip-path="url(#clip)">
<rect x="0" y="0" width="320" height="660" rx="0" fill="#FAF6EC" stroke="none" stroke-width="1"/>
<text x="24" y="44" font-family="Helvetica, Arial, sans-serif" font-size="19" font-weight="700" fill="#1E1B16" text-anchor="start">Create your account</text>
<text x="24" y="66" font-family="Helvetica, Arial, sans-serif" font-size="10.5" font-weight="400" fill="#6B6255" text-anchor="start">Join as an art lover and start browsing</text>
<rect x="24" y="92" width="272" height="42" rx="10" fill="#FFFFFF" stroke="#E5DCC8" stroke-width="1.3"/>
<text x="36" y="117" font-family="Helvetica, Arial, sans-serif" font-size="10.5" font-weight="400" fill="#A79C8A" text-anchor="start">Full Name</text>
<rect x="24" y="146" width="272" height="42" rx="10" fill="#FFFFFF" stroke="#E5DCC8" stroke-width="1.3"/>
<text x="36" y="171" font-family="Helvetica, Arial, sans-serif" font-size="10.5" font-weight="400" fill="#A79C8A" text-anchor="start">Email</text>
<rect x="24" y="200" width="272" height="42" rx="10" fill="#FFFFFF" stroke="#E5DCC8" stroke-width="1.3"/>
<text x="36" y="225" font-family="Helvetica, Arial, sans-serif" font-size="10.5" font-weight="400" fill="#A79C8A" text-anchor="start">Phone Number</text>
<rect x="24" y="254" width="272" height="42" rx="10" fill="#FFFFFF" stroke="#E5DCC8" stroke-width="1.3"/>
<text x="36" y="279" font-family="Helvetica, Arial, sans-serif" font-size="10.5" font-weight="400" fill="#A79C8A" text-anchor="start">Home Address</text>
<rect x="24" y="308" width="272" height="42" rx="10" fill="#FFFFFF" stroke="#E5DCC8" stroke-width="1.3"/>
<text x="36" y="333" font-family="Helvetica, Arial, sans-serif" font-size="10.5" font-weight="400" fill="#A79C8A" text-anchor="start">Password</text>
<rect x="24" y="368" width="272" height="46" rx="23" fill="#1B4F91" stroke="none" stroke-width="1"/>
<text x="160" y="395.5" font-family="Helvetica, Arial, sans-serif" font-size="12" font-weight="700" fill="#FFFFFF" text-anchor="middle">Create Account</text>
</g>
<rect x="1" y="1" width="318" height="658" rx="26" fill="none" stroke="#D8D0BE" stroke-width="2"/>
</svg>